<svg width="32" height="32" viewBox="0 0 32 32" fill="none" xmlns="http://www.w3.org/2000/svg">
<g clip-path="url(#clip0_2055_6)">
<path fill-rule="evenodd" clip-rule="evenodd" d="M18.4552 0.483323C19.7364 1.10092 19.5935 1.95332 19.6394 2.99457C19.6394 3.60707 20.7266 4.45947 21.579 4.5054C23.1868 4.69426 24.6007 4.69426 25.8767 5.87845C27.0609 7.15444 27.015 8.57343 27.2497 10.1353C27.3467 11.1255 28.3369 12.3097 29.0464 12.4015C30.0876 12.5445 30.935 12.3097 31.5526 13.5398C32.0731 15.0047 32.0731 17.2301 31.5066 18.695C30.6542 20.3028 29.1893 20.5835 28.194 19.1646C27.2497 17.9396 27.6274 16.1378 27.6274 14.3411C27.5815 13.305 26.5402 12.0238 25.6419 11.9779C23.9882 11.886 22.2375 12.2637 20.8236 10.8448C19.3536 9.4258 19.6854 7.67508 19.6854 6.0673C19.6854 5.31186 18.5982 4.41353 17.6998 4.41353C15.9542 4.45947 14.1065 4.79124 12.8815 3.84186C11.4625 2.85166 11.7433 1.38676 13.3511 0.534365C14.816 -0.0832393 16.9904 -0.0832393 18.4552 0.483323ZM6.97085 2.33103C7.34861 2.37697 6.68504 3.22937 6.16952 4.21958C5.92962 4.7402 6.45026 5.21489 7.11378 5.02603C8.57869 4.64832 10.2324 4.1277 11.3196 5.02603C12.5497 6.0673 12.0751 7.721 11.8862 9.47178C11.7943 10.3701 12.8815 11.4573 13.8717 11.4114C15.8113 11.3143 17.7968 10.9366 19.2617 12.3556C20.7266 13.8205 20.206 15.8111 20.206 17.7507C20.16 18.9298 21.3902 20.1599 22.4774 20.114C24.223 20.017 25.8767 19.4504 26.9179 20.6805C27.7704 21.8136 27.2956 23.4214 26.9179 24.8915C26.7291 25.5499 27.2038 26.0705 27.7244 25.8357C28.7146 25.3151 29.567 24.6516 29.613 25.0293C29.567 25.0803 29.567 25.1721 29.5211 25.2232C28.3828 26.8769 26.9179 28.3419 25.2642 29.475C25.1723 29.526 25.1213 29.572 25.0753 29.572C24.6976 29.526 25.3612 28.6736 25.8767 27.6783C26.1166 27.1577 25.596 26.6881 24.9324 26.8769C23.4675 27.2547 21.8138 27.7753 20.7266 26.8769C19.4965 25.8357 20.0631 24.182 20.16 22.4312C20.206 21.344 18.9759 20.1599 17.8427 20.1599C15.9032 20.2058 13.9176 20.6805 12.4528 19.2156C10.9879 17.7507 11.4166 15.7601 11.5085 13.8205C11.5544 12.8763 10.5183 11.7431 9.56888 11.835C7.82328 12.0238 6.16952 12.4986 5.12827 11.2684C4.27587 10.1812 4.75056 8.52751 5.12827 7.05748C5.31713 6.39903 4.84244 5.87845 4.32182 6.11322C3.37754 6.58788 2.47921 7.29738 2.43327 6.91967C2.43327 6.86863 2.47921 6.77674 2.53025 6.73082C3.66337 5.07197 5.12827 3.60707 6.782 2.47395C6.87901 2.42291 6.92493 2.4229 6.97085 2.33103ZM0.493687 18.4092C-0.0269376 16.9443 -0.0269375 14.7699 0.544728 13.305C1.39202 11.7431 2.85691 11.4114 3.85223 12.8303C4.7965 14.0604 4.46473 15.903 4.41879 17.6538C4.41879 18.5521 5.31713 19.6392 6.07256 19.6392C7.68034 19.6392 9.43106 19.3075 10.8449 20.7775C12.315 22.1914 11.8862 23.9421 11.9832 25.601C12.0751 26.4992 13.3051 27.5405 14.3464 27.5864C16.092 27.5864 17.9397 27.2087 19.1647 28.153C20.5837 29.1483 20.303 30.6132 18.6952 31.4656C17.2303 32.0322 15.0559 32.0322 13.591 31.4656C12.3609 30.848 12.5956 30.0467 12.4528 28.9595C12.4068 28.25 11.1767 27.2547 10.1865 27.1577C8.57869 26.9229 7.1597 26.9688 5.92962 25.7898C4.75056 24.5138 4.70463 23.0437 4.56171 21.487C4.51067 20.6805 3.66337 19.5933 3.04577 19.5474C2.00962 19.4964 1.15723 19.6392 0.493687 18.4092ZM29.567 6.77674C29.4241 7.29738 28.0511 6.63386 26.6372 5.12301C25.0753 3.70405 24.4628 2.37697 24.9784 2.2851C25.0294 2.33103 25.1213 2.33103 25.1723 2.37697C26.872 3.51009 28.291 4.92905 29.47 6.58788C29.5211 6.63386 29.5211 6.73082 29.567 6.77674ZM2.33629 24.9374C2.43327 24.4167 3.75525 25.0803 5.17421 26.5911C6.68504 28.0101 7.34856 29.3831 6.82797 29.526C6.782 29.526 6.68504 29.475 6.63912 29.4291C4.98535 28.25 3.5664 26.78 2.43327 25.1262C2.38734 25.0293 2.38734 24.9833 2.33629 24.9374Z" fill="url(#paint0_linear_2055_6)"/>
</g>
<defs>
<linearGradient id="paint0_linear_2055_6" x1="1.4839" y1="0.0659043" x2="30.5627" y2="31.889" gradientUnits="userSpaceOnUse">
<stop stop-color="#81FE89"/>
<stop offset="1" stop-color="#31E9BD"/>
</linearGradient>
<clipPath id="clip0_2055_6">
<rect width="32" height="32" fill="white"/>
</clipPath>
</defs>
</svg>

